<svg xmlns="http://www.w3.org/2000/svg" width="22" height="18" viewBox="0 -2 22 18" fill="#106ba3" style="transform: scaleY(-1); background-color: rgba(255, 255, 255, 0.7); margin: 0 2px; padding: 1px;"><desc>code</desc><path d="M15.71 8.71L12.71 11.71C12.53 11.89 12.28 12 12 12C11.45 12 11 11.55 11 11C11 10.72 11.11 10.47 11.29 10.29L13.59 8L11.3 5.71C11.11 5.53 11 5.28 11 5C11 4.45 11.45 4 12 4C12.28 4 12.53 4.11 12.71 4.29L15.71 7.29C15.89 7.47 16 7.72 16 8C16 8.28 15.89 8.53 15.71 8.71zM5 11C5 11.55 4.55 12 4 12C3.72 12 3.47 11.89 3.29 11.71L0.29 8.71C0.11 8.53 0 8.28 0 8C0 7.72 0.11 7.47 0.29 7.29L3.29 4.29C3.47 4.11 3.72 4 4 4C4.55 4 5 4.45 5 5C5 5.28 4.89 5.53 4.71 5.71L2.41 8L4.7 10.29C4.89 10.47 5 10.72 5 11zM9 14C8.52 14 8.13 13.65 8.04 13.19L6.04 3.19C6.03 3.13 6 3.07 6 3C6 2.45 6.45 2 7 2C7.48 2 7.87 2.35 7.96 2.81L9.96 12.81C9.97 12.87 10 12.93 10 13C10 13.55 9.55 14 9 14z" fill-rule="evenodd"></path></svg>
