<svg xmlns="http://www.w3.org/2000/svg" width="22" height="18" viewBox="0 -2 22 18" fill="#106ba3" style="transform: scaleY(-1); background-color: rgba(255, 255, 255, 0.7); margin: 0 2px; padding: 1px;"><desc>build</desc><path d="M15.39 3.59L7.7 10L8.77 11.1C9.11 11.44 8.65 11.73 8.89 12.36C9.77 14.53 12.3 14.71 12.3 14.71S12.66 15.08 13.01 15.43C9.74 16.81 7.53 15.47 6.54 14.6L3.12 11.1L2.41 10.38C2.02 9.98 2.02 9.33 2.41 8.93L1.71 8.21C1.32 8.61 0.69 8.61 0.3 8.21S-0.09 7.16 0.3 6.76L1.71 5.31C2.1 4.91 2.73 4.91 3.12 5.31S3.51 6.36 3.12 6.76L3.83 7.48C4.22 7.08 4.85 7.08 5.24 7.48L6.04 8.3L12.43 0.63C13.25 -0.19 14.57 -0.19 15.39 0.63C16.2 1.45 16.2 2.78 15.39 3.59z" fill-rule="evenodd"></path></svg>
