<svg xmlns="http://www.w3.org/2000/svg" width="22" height="18" viewBox="0 -2 22 18" fill="#0d8050" style="transform: scaleY(-1); background-color: rgba(255, 255, 255, 0.7); margin: 0 2px; padding: 1px;"><desc>reset</desc><path d="M6 11C6 10.45 5.55 10 5 10L1 10C0.45 10 0 10.45 0 11L0 15C0 15.55 0.45 16 1 16C1.55 16 2 15.55 2 15L2 13.26C3.46 14.93 5.6 16 8 16C12.42 16 16 12.42 16 8C16 3.94 12.98 0.6 9.06 0.08C9.04 0.08 9.02 0.07 9 0.07C8.67 0.03 8.34 0 8 0C3.58 0 0 3.58 0 8C0 8.55 0.45 9 1 9C1.55 9 2 8.55 2 8C2 4.69 4.69 2 8 2C8.71 2 9.37 2.15 10 2.38L10 2.37C12.33 3.19 14 5.39 14 8C14 11.31 11.31 14 8 14C6.23 14 4.64 13.22 3.54 12L5 12C5.55 12 6 11.55 6 11z" fill-rule="evenodd"></path></svg>
