<svg xmlns="http://www.w3.org/2000/svg" width="22" height="18" viewBox="0 -2 22 18" fill="#182026" style="transform: scaleY(-1); background-color: rgba(255, 255, 255, 0.7); margin: 0 2px; padding: 1px;"><desc>step-forward</desc><path d="M12 13H11C10.45 13 10 12.55 10 12V9.28L5.62 12.78L5.62 12.77C5.44 12.91 5.24 13 5 13C4.45 13 4 12.55 4 12V4C4 3.45 4.45 3 5 3C5.24 3 5.44 3.09 5.62 3.23L5.63 3.22L10 6.72V4C10 3.45 10.45 3 11 3H12C12.55 3 13 3.45 13 4V12C13 12.55 12.55 13 12 13z" fill-rule="evenodd"></path></svg>
